Coordinates
version=1
nRows=16
nColumns=36
inDegrees=yes

Units are S.I. units (second, meters, Newtons, ...)
If the header above contains a line with 'inDegrees', this indicates whether rotational values are in degrees (yes) or radians (no).

endheader
time	pelvis_tilt	pelvis_list	pelvis_rotation	pelvis_tx	pelvis_ty	pelvis_tz	hip_flexion_r	hip_adduction_r	hip_rotation_r	knee_angle_r	knee_angle_r_beta	ankle_angle_r	subtalar_angle_r	mtp_angle_r	hip_flexion_l	hip_adduction_l	hip_rotation_l	knee_angle_l	knee_angle_l_beta	ankle_angle_l	subtalar_angle_l	mtp_angle_l	lumbar_extension	lumbar_bending	lumbar_rotation	arm_flex_r	arm_add_r	arm_rot_r	elbow_flex_r	pro_sup_r	arm_flex_l	arm_add_l	arm_rot_l	elbow_flex_l	pro_sup_l
      2.93333330	      2.28329341	      0.61671057	      2.32100609	     -0.03984250	      1.07086619	     -0.18670244	     44.74241930	     -6.07745570	    -11.25925646	      0.97801177	      0.01706953	    -14.00687894	     -5.47362733	     -7.49999987	     29.70329562	      9.86658445	      2.87975277	     71.54435970	      1.24868464	     32.15593402	    -11.12797454	     -7.49999987	    -25.22404533	     -3.55164964	      1.79693874	     30.28029449	      9.35296189	     60.88458528	    120.42535678	     99.00577152	     47.76633685	      7.74387045	     68.75932798	    127.93411425	     76.72848483
      2.95000000	      2.74500634	      0.75311613	      1.99667532	     -0.03781793	      1.07103420	     -0.18600987	     44.08993953	     -6.01006470	    -11.47528211	      0.88184016	      0.01539101	    -14.34021414	     -7.01552883	     -7.49999987	     29.41815431	     10.02049040	      3.09877938	     71.83712371	      1.25379433	     33.65874843	    -10.62012502	     -7.49999987	    -25.69212000	     -3.55110146	      2.02206818	     30.37936438	      9.42873007	     60.90819424	    119.70523475	     98.83321237	     47.74991925	      7.52789211	     68.57190451	    127.88233354	     77.18042634
      2.96666670	      2.52311020	      0.45089685	      1.56354774	     -0.04174812	      1.06101581	     -0.18564204	     44.71112875	     -5.62392270	    -10.78148595	      1.16920189	      0.02040642	    -15.90038116	     -9.74830914	     -7.49999987	     31.02006577	      9.70716419	      3.02039375	     73.41899101	      1.28140313	     34.50639391	    -10.87103387	     -7.49999987	    -25.75699786	     -3.16328467	      2.32230233	     30.57221631	      9.36690801	     61.43728366	    119.58463995	     97.94037494	     47.96665823	      7.37631422	     68.36425812	    127.88818984	     76.93007118
      2.98333330	      2.20845099	      0.57204715	      1.21128204	     -0.04177427	      1.05798179	     -0.18659954	     45.39417251	     -5.63891293	    -10.76985169	      1.13973391	      0.01989211	    -17.35374625	    -12.54090506	     -7.49999987	     32.66378034	      9.86496487	      2.92359332	     74.92064056	      1.30761186	     35.16636185	    -11.19605193	     -7.49999987	    -25.65336432	     -3.15314166	      2.70120191	     30.60708922	      9.26726825	     61.92139276	    119.78679835	     96.45622443	     48.06691829	      7.46232974	     68.57034983	    128.10657956	     76.33974251
      3.00000000	      2.23996765	      1.21277453	      0.88473271	     -0.04263183	      1.05665219	     -0.18571414	     45.68478253	     -5.82752171	    -12.48890381	      0.70254539	      0.01226173	    -15.63072718	    -11.47530834	     -7.49999987	     32.99143018	     10.47207098	      2.81795430	     75.71859218	      1.32153874	     35.27170732	    -11.40943339	     -7.49999987	    -25.58344379	     -3.89494176	      2.61093497	     30.39069976	      9.41648507	     61.70938678	    120.09258537	     99.67279689	     48.36685874	      7.32927607	     68.28707470	    128.17750785	     78.24419518
      3.01666670	      2.32021371	      1.59510987	      0.90424503	     -0.04022223	      1.05721173	     -0.18684456	     45.61007447	     -6.19623630	    -13.63632933	      0.63256317	      0.01104031	    -17.39046503	    -13.44426004	     -7.49999987	     32.94586362	     11.02556329	      2.95418798	     76.01314177	      1.32667960	     35.82605380	    -11.29514061	     -7.49999987	    -25.75218208	     -4.05735356	      2.73606686	     30.43241398	      9.47579157	     61.53751553	    119.86409063	     99.73010641	     48.46928137	      7.43848111	     68.43989429	    128.46695373	     78.24826111
      3.03333330	      2.63383649	      1.87269685	      0.76847350	     -0.04284989	      1.05755271	     -0.18683900	     45.14420596	     -6.38182083	    -14.84092676	      0.65043369	      0.01135221	    -17.86148540	    -13.75404826	     -7.49999987	     32.61768369	     11.35199043	      2.89941227	     75.96425721	      1.32582640	     36.29783078	    -11.14732543	     -7.49999987	    -26.12088286	     -4.17057075	      2.73041639	     30.58386373	      9.55412301	     61.39960064	    119.57498555	     99.69412249	     48.45549290	      7.37084172	     68.44309275	    128.68298935	     78.18751750
      3.05000000	      2.82500637	      2.19822955	      0.54282928	     -0.04088647	      1.05631359	     -0.18613110	     44.92940496	     -6.47091430	    -16.26331727	      0.59620292	      0.01040570	    -17.17450715	    -14.32124154	     -7.49999987	     32.45623143	     11.65348503	      2.71174919	     76.02008351	      1.32680075	     35.74944626	    -11.68075913	     -7.49999987	    -26.34541389	     -4.39979408	      2.95009253	     30.48461575	      9.53905205	     61.11995699	    119.25902290	     99.63496100	     48.40757370	      7.35026881	     68.58211977	    128.73233999	     78.28471951
      3.06666670	      2.84272878	      2.20959736	      0.45392449	     -0.03725435	      1.05426385	     -0.18591565	     44.65467049	     -6.44652395	    -16.44611070	      0.61466300	      0.01072789	    -18.05877697	    -15.46229969	     -7.49999987	     32.47849748	     11.64453592	      2.73998925	     76.20574082	      1.33004109	     36.41364896	    -11.49183992	     -7.49999987	    -26.38011506	     -4.35738643	      3.12781043	     30.30216593	      9.37622621	     61.08508415	    119.16008671	     99.74481886	     48.29389189	      7.35936795	     68.88588035	    128.55287122	     78.19763978
      3.08333330	      2.53335213	      2.04647086	      0.27314519	     -0.03964865	      1.04720589	     -0.18713176	     45.17505960	     -6.18760843	    -16.36039063	      0.74328694	      0.01297280	    -16.58618166	    -15.46135661	     -7.49999987	     32.97320217	     11.58687897	      2.40032095	     77.70296919	      1.35617265	     37.80851684	    -11.33544716	     -7.49999987	    -26.12479936	     -4.02388252	      3.31123014	     29.90414548	      9.17549408	     61.65680462	    119.37848972	     97.41216120	     48.21263351	      7.31435481	     69.14836400	    128.71040266	     77.33934170
      3.10000000	      2.44321038	      2.09242991	      0.35080351	     -0.04130969	      1.04608952	     -0.18691844	     45.16502616	     -6.29052415	    -15.80162612	      1.03879405	      0.01813038	    -15.51600359	    -14.59869511	     -7.49999987	     32.93482769	     11.75993012	      2.34388232	     78.43203731	      1.36889729	     39.04680175	    -10.44263833	     -7.49999987	    -25.98314057	     -3.98057190	      3.38614428	     29.42873938	      8.95145073	     61.49934657	    119.81486943	    100.23577634	     48.25721986	      7.38449922	     69.12431446	    128.52295947	     78.47438164
      3.11666670	      2.06072596	      2.50021345	      0.20798773	     -0.03871687	      1.04411244	     -0.18741742	     45.34436340	     -6.52490983	    -16.12457517	      0.92271323	      0.01610438	    -14.60551562	    -13.39223259	     -7.49999987	     32.95046760	     12.18782645	      1.97928416	     78.42072610	      1.36869987	     39.59766895	    -10.12536343	     -7.49999987	    -25.49389333	     -4.32316168	      3.37990361	     28.86664958	      8.84916114	     61.69394476	    120.10326262	    100.41266210	     48.05125291	      7.32699326	     69.28026187	    128.68203688	     78.47919047
      3.13333330	      1.71190132	      2.89338328	      0.54077868	     -0.03658971	      1.04287538	     -0.18826423	     45.43687359	     -7.11736716	    -15.81846628	      0.90764679	      0.01584142	    -15.11965785	    -12.68045993	     -7.49999987	     33.24081131	     12.71624420	      2.07496979	     78.06768217	      1.36253809	     41.15340340	     -9.53064477	     -7.49999987	    -25.07039125	     -4.60511864	      3.26804822	     28.35938198	      8.67339014	     61.64242893	    120.43917604	    100.68505588	     47.96624259	      7.42302747	     69.59446171	    128.58600878	     78.22167779
      3.15000000	      1.63760941	      3.16960843	      0.54094748	     -0.04030665	      1.04272080	     -0.18808364	     45.27077943	     -7.40474170	    -15.70121655	      1.15994436	      0.02024485	    -15.46723665	    -12.11196453	     -7.49999987	     33.05487319	     13.07426193	      2.06390908	     77.86834285	      1.35905897	     42.30133353	     -9.22767540	     -7.49999987	    -24.88011895	     -4.76984071	      3.18496975	     28.16825526	      8.69084599	     61.88391093	    120.54416347	    100.08148174	     47.87381230	      7.34905623	     69.54646135	    128.64429498	     78.01198834
      3.16666670	      1.43285888	      3.41560640	      0.63903509	     -0.04273293	      1.04205596	     -0.18752823	     45.44426004	     -7.64180031	    -15.65702037	      1.45522502	      0.02539847	    -16.07251386	    -11.33649678	     -7.49999987	     33.62215352	     13.32817982	      2.00630299	     77.67224169	      1.35563635	     42.16696949	     -8.95407582	     -7.49999987	    -24.91829621	     -4.84869404	      3.11317888	     28.26007805	      8.78579908	     61.92313444	    120.67394573	    100.49180926	     48.04287807	      7.31012900	     69.45480554	    128.85302576	     77.79821178
      3.18333330	      1.25825764	      3.60238542	      0.39326187	     -0.04228692	      1.04005666	     -0.18743568	     45.42361402	     -7.47863024	    -16.23452479	      1.36587658	      0.02383904	    -16.09404716	    -10.02775552	     -7.49999987	     33.73116873	     13.49245868	      1.81830342	     77.75397068	      1.35706279	     41.86040968	     -9.48787875	     -7.49999987	    -24.78935558	     -4.97273142	      3.28039302	     28.27216088	      8.81969074	     61.89473284	    120.78229231	    100.69222896	     48.17451671	      7.27295115	     69.15023581	    128.88071514	     77.79756375
